<svg xmlns="http://www.w3.org/2000/svg" width="1362" height="411.463" viewBox="0 0 1362 411.463">
  <g id="Group_3191" data-name="Group 3191" transform="translate(-279 -2591.537)">
    <text id="Women_who_believe_domestic_violence_is_justified" data-name="Women who believe domestic violence is justified" transform="translate(279 2962)" font-size="31" font-family="SegoeUI, Segoe UI"><tspan x="-338" y="33">Women who believe domestic violence is justified</tspan></text>
    <text id="_15" data-name="15" transform="translate(279 2939.912)" fill="#2b2e34" font-size="40" font-family="Guardian Text Sans Rs"><tspan x="0" y="0">15</tspan></text>
    <g id="Group" transform="translate(926.582 2907.912)">
      <text id="_50" data-name="50" transform="translate(0 32)" fill="#2b2e34" font-size="40" font-family="Guardian Text Sans Rs"><tspan x="0" y="0">50</tspan></text>
      <text id="_85" data-name="85" transform="translate(649.451 30)" fill="#2b2e34" font-size="38" font-family="Guardian Text Sans Rs"><tspan x="0" y="0">85</tspan></text>
    </g>
    <g id="Group_2783" data-name="Group 2783" transform="translate(284.774 2876.646)">
      <path id="Path_901" data-name="Path 901" d="M0,0H1333.684" fill="none" stroke="#2b2e34" stroke-linecap="square" stroke-width="0.5"/>
    </g>
    <g id="Group_2784" data-name="Group 2784" transform="translate(1523.198 2876.646)">
      <path id="Path_902" data-name="Path 902" d="M0,0V17.138" transform="translate(0 0)" fill="none" stroke="#2b2e34" stroke-width="0.5"/>
    </g>
    <g id="Group_2785" data-name="Group 2785" transform="translate(1332.671 2876.646)">
      <path id="Path_903" data-name="Path 903" d="M0,0V17.138" transform="translate(0 0)" fill="none" stroke="#2b2e34" stroke-width="0.5"/>
    </g>
    <g id="Group_2786" data-name="Group 2786" transform="translate(1142.145 2876.646)">
      <path id="Path_904" data-name="Path 904" d="M0,0V17.138" transform="translate(0 0)" fill="none" stroke="#2b2e34" stroke-width="0.5"/>
    </g>
    <g id="Group_2787" data-name="Group 2787" transform="translate(951.618 2876.646)">
      <path id="Path_905" data-name="Path 905" d="M0,0V17.138" transform="translate(0 0)" fill="none" stroke="#2b2e34" stroke-width="0.5"/>
    </g>
    <g id="Group_2788" data-name="Group 2788" transform="translate(761.091 2876.646)">
      <path id="Path_906" data-name="Path 906" d="M0,0V17.138" transform="translate(0 0)" fill="none" stroke="#2b2e34" stroke-width="0.5"/>
    </g>
    <g id="Group_2789" data-name="Group 2789" transform="translate(570.564 2876.646)">
      <path id="Path_907" data-name="Path 907" d="M0,0V17.138" transform="translate(0 0)" fill="none" stroke="#2b2e34" stroke-width="0.5"/>
    </g>
    <g id="Group_2790" data-name="Group 2790" transform="translate(380.038 2876.646)">
      <path id="Path_908" data-name="Path 908" d="M0,0V17.138" transform="translate(0 0)" fill="none" stroke="#2b2e34" stroke-width="0.5"/>
    </g>
    <g id="Group_2791" data-name="Group 2791" transform="translate(1618.461 2876.646)">
      <path id="Path_909" data-name="Path 909" d="M0,0V17.138" transform="translate(0 0)" fill="none" stroke="#2b2e34" stroke-width="0.5"/>
    </g>
    <g id="Group_2792" data-name="Group 2792" transform="translate(1427.935 2876.646)">
      <path id="Path_910" data-name="Path 910" d="M0,0V17.138" transform="translate(0 0)" fill="none" stroke="#2b2e34" stroke-width="0.5"/>
    </g>
    <g id="Group_2793" data-name="Group 2793" transform="translate(1237.408 2876.646)">
      <path id="Path_911" data-name="Path 911" d="M0,0V17.138" transform="translate(0 0)" fill="none" stroke="#2b2e34" stroke-width="0.5"/>
    </g>
    <g id="Group_2794" data-name="Group 2794" transform="translate(1046.881 2876.646)">
      <path id="Path_912" data-name="Path 912" d="M0,0V17.138" transform="translate(0 0)" fill="none" stroke="#2b2e34" stroke-width="0.5"/>
    </g>
    <g id="Group_2795" data-name="Group 2795" transform="translate(856.354 2876.646)">
      <path id="Path_913" data-name="Path 913" d="M0,0V17.138" transform="translate(0 0)" fill="none" stroke="#2b2e34" stroke-width="0.5"/>
    </g>
    <g id="Group_2796" data-name="Group 2796" transform="translate(665.828 2876.646)">
      <path id="Path_914" data-name="Path 914" d="M0,0V17.138" transform="translate(0 0)" fill="none" stroke="#2b2e34" stroke-width="0.5"/>
    </g>
    <g id="Group_2797" data-name="Group 2797" transform="translate(475.301 2876.646)">
      <path id="Path_915" data-name="Path 915" d="M0,0V17.138" transform="translate(0 0)" fill="none" stroke="#2b2e34" stroke-width="0.5"/>
    </g>
    <g id="Group_2798" data-name="Group 2798" transform="translate(284.774 2876.646)">
      <path id="Path_916" data-name="Path 916" d="M0,0V17.138" transform="translate(0 0)" fill="none" stroke="#2b2e34" stroke-width="0.5"/>
    </g>
    <g id="Group_2799" data-name="Group 2799" transform="translate(422.28 2691.447)">
      <path id="Path_917" data-name="Path 917" d="M40.524,20.26A24.441,24.441,0,1,1,16.087-4.178,24.437,24.437,0,0,1,40.524,20.26" transform="translate(8.357 4.178)" fill="#c1c1c1"/>
    </g>
    <g id="Group_2800" data-name="Group 2800" transform="translate(279.386 2691.447)">
      <path id="Path_918" data-name="Path 918" d="M40.524,20.26A24.441,24.441,0,1,1,16.087-4.178,24.437,24.437,0,0,1,40.524,20.26" transform="translate(8.357 4.178)" fill="#c1c1c1"/>
    </g>
    <g id="Group_2801" data-name="Group 2801" transform="translate(336.544 2691.447)">
      <path id="Path_919" data-name="Path 919" d="M40.524,20.26A24.441,24.441,0,1,1,16.087-4.178,24.437,24.437,0,0,1,40.524,20.26" transform="translate(8.357 4.178)" fill="#c1c1c1"/>
    </g>
    <g id="Group_2802" data-name="Group 2802" transform="translate(574.701 2691.447)">
      <path id="Path_920" data-name="Path 920" d="M40.524,20.26A24.441,24.441,0,1,1,16.087-4.178,24.437,24.437,0,0,1,40.524,20.26" transform="translate(8.357 4.178)" fill="#c1c1c1"/>
    </g>
    <g id="Group_2803" data-name="Group 2803" transform="translate(538.502 2658.605)">
      <path id="Path_921" data-name="Path 921" d="M40.524,20.26A24.441,24.441,0,1,1,16.087-4.178,24.437,24.437,0,0,1,40.524,20.26" transform="translate(8.357 4.178)" fill="#c1c1c1"/>
    </g>
    <g id="Group_2804" data-name="Group 2804" transform="translate(508.017 2696.812)">
      <path id="Path_922" data-name="Path 922" d="M40.524,20.26A24.441,24.441,0,1,1,16.087-4.178,24.437,24.437,0,0,1,40.524,20.26" transform="translate(8.357 4.178)" fill="#c1c1c1"/>
    </g>
    <g id="Group_2805" data-name="Group 2805" transform="translate(561.365 2738.47)">
      <path id="Path_923" data-name="Path 923" d="M40.524,20.26A24.441,24.441,0,1,1,16.087-4.178,24.437,24.437,0,0,1,40.524,20.26" transform="translate(8.357 4.178)" fill="#c1c1c1"/>
    </g>
    <g id="Group_2806" data-name="Group 2806" transform="translate(652.817 2691.447)">
      <path id="Path_924" data-name="Path 924" d="M40.524,20.26A24.441,24.441,0,1,1,16.087-4.178,24.437,24.437,0,0,1,40.524,20.26" transform="translate(8.357 4.178)" fill="#c1c1c1"/>
    </g>
    <g id="Group_2807" data-name="Group 2807" transform="translate(662.344 2643.507)">
      <path id="Path_925" data-name="Path 925" d="M40.524,20.26A24.441,24.441,0,1,1,16.087-4.178,24.437,24.437,0,0,1,40.524,20.26" transform="translate(8.357 4.178)" fill="#c1c1c1"/>
    </g>
    <g id="Group_2808" data-name="Group 2808" transform="translate(427.996 2642.905)">
      <path id="Path_926" data-name="Path 926" d="M40.524,20.26A24.441,24.441,0,1,1,16.087-4.178,24.437,24.437,0,0,1,40.524,20.26" transform="translate(8.357 4.178)" fill="#c1c1c1"/>
    </g>
    <g id="Group_2809" data-name="Group 2809" transform="translate(908.123 2691.447)">
      <path id="Path_927" data-name="Path 927" d="M40.524,20.26A24.441,24.441,0,1,1,16.087-4.178,24.437,24.437,0,0,1,40.524,20.26" transform="translate(8.357 4.178)" fill="#c1c1c1"/>
    </g>
    <g id="Group_2810" data-name="Group 2810" transform="translate(614.712 2660.836)">
      <path id="Path_928" data-name="Path 928" d="M40.524,20.26A24.441,24.441,0,1,1,16.087-4.178,24.437,24.437,0,0,1,40.524,20.26" transform="translate(8.357 4.178)" fill="#c1c1c1"/>
    </g>
    <g id="Group_2811" data-name="Group 2811" transform="translate(614.712 2722.058)">
      <path id="Path_929" data-name="Path 929" d="M40.524,20.26A24.441,24.441,0,1,1,16.087-4.178,24.437,24.437,0,0,1,40.524,20.26" transform="translate(8.357 4.178)" fill="#c1c1c1"/>
    </g>
    <g id="Group_2812" data-name="Group 2812" transform="translate(689.018 2724.289)">
      <path id="Path_930" data-name="Path 930" d="M40.524,20.26A24.441,24.441,0,1,1,16.087-4.178,24.437,24.437,0,0,1,40.524,20.26" transform="translate(8.357 4.178)" fill="#c1c1c1"/>
    </g>
    <g id="Group_2813" data-name="Group 2813" transform="translate(466.102 2721.954)">
      <path id="Path_931" data-name="Path 931" d="M40.524,20.26A24.441,24.441,0,1,1,16.087-4.178,24.437,24.437,0,0,1,40.524,20.26" transform="translate(8.357 4.178)" fill="#c1c1c1"/>
    </g>
    <g id="Group_2814" data-name="Group 2814" transform="translate(593.754 2616.679)">
      <path id="Path_932" data-name="Path 932" d="M40.524,20.26A24.441,24.441,0,1,1,16.087-4.178,24.437,24.437,0,0,1,40.524,20.26" transform="translate(8.357 4.178)" fill="#c1c1c1"/>
    </g>
    <g id="Group_2815" data-name="Group 2815" transform="translate(875.733 2654.842)">
      <path id="Path_933" data-name="Path 933" d="M40.524,20.26A24.441,24.441,0,1,1,16.087-4.178,24.437,24.437,0,0,1,40.524,20.26" transform="translate(8.357 4.178)" fill="#c1c1c1"/>
    </g>
    <g id="Group_2816" data-name="Group 2816" transform="translate(521.354 2766.545)">
      <path id="Path_934" data-name="Path 934" d="M40.524,20.26A24.441,24.441,0,1,1,16.087-4.178,24.437,24.437,0,0,1,40.524,20.26" transform="translate(8.357 4.178)" fill="#c1c1c1"/>
    </g>
    <g id="Group_2817" data-name="Group 2817" transform="translate(824.291 2691.447)">
      <path id="Path_935" data-name="Path 935" d="M40.524,20.26A24.441,24.441,0,1,1,16.087-4.178,24.437,24.437,0,0,1,40.524,20.26" transform="translate(8.357 4.178)" fill="#c1c1c1"/>
    </g>
    <g id="Group_2818" data-name="Group 2818" transform="translate(669.965 2769.301)">
      <path id="Path_936" data-name="Path 936" d="M40.524,20.26A24.441,24.441,0,1,1,16.087-4.178,24.437,24.437,0,0,1,40.524,20.26" transform="translate(8.357 4.178)" fill="#c1c1c1"/>
    </g>
    <g id="Group_2819" data-name="Group 2819" transform="translate(635.67 2591.537)">
      <path id="Path_937" data-name="Path 937" d="M40.524,20.26A24.441,24.441,0,1,1,16.087-4.178,24.437,24.437,0,0,1,40.524,20.26" transform="translate(8.357 4.178)" fill="#c1c1c1"/>
    </g>
    <g id="Group_2820" data-name="Group 2820" transform="translate(631.859 2799.912)">
      <path id="Path_938" data-name="Path 938" d="M40.524,20.26A24.441,24.441,0,1,1,16.087-4.178,24.437,24.437,0,0,1,40.524,20.26" transform="translate(8.357 4.178)" fill="#c1c1c1"/>
    </g>
    <g id="Group_2821" data-name="Group 2821" transform="translate(799.522 2649.309)">
      <path id="Path_939" data-name="Path 939" d="M40.524,20.26A24.441,24.441,0,1,1,16.087-4.178,24.437,24.437,0,0,1,40.524,20.26" transform="translate(8.357 4.178)" fill="#c1c1c1"/>
    </g>
    <g id="Group_2822" data-name="Group 2822" transform="translate(1494.945 2691.447)">
      <path id="Path_940" data-name="Path 940" d="M40.524,20.26A24.441,24.441,0,1,1,16.087-4.178,24.437,24.437,0,0,1,40.524,20.26" transform="translate(8.357 4.178)" fill="#ff3017"/>
    </g>
    <g id="Group_2823" data-name="Group 2823" transform="translate(1184.387 2691.447)">
      <path id="Path_941" data-name="Path 941" d="M40.524,20.26A24.441,24.441,0,1,1,16.087-4.178,24.437,24.437,0,0,1,40.524,20.26" transform="translate(8.357 4.178)" fill="#c1c1c1"/>
    </g>
    <g id="Group_2824" data-name="Group 2824" transform="translate(1028.155 2691.447)">
      <path id="Path_942" data-name="Path 942" d="M40.524,20.26A24.441,24.441,0,1,1,16.087-4.178,24.437,24.437,0,0,1,40.524,20.26" transform="translate(8.357 4.178)" fill="#c1c1c1"/>
    </g>
    <g id="Group_2825" data-name="Group 2825" transform="translate(1586.397 2691.447)">
      <path id="Path_943" data-name="Path 943" d="M40.524,20.26A24.441,24.441,0,1,1,16.087-4.178,24.437,24.437,0,0,1,40.524,20.26" transform="translate(8.357 4.178)" fill="#c1c1c1"/>
    </g>
    <g id="Group_2826" data-name="Group 2826" transform="translate(1592.113 2642.905)">
      <path id="Path_944" data-name="Path 944" d="M40.524,20.26A24.441,24.441,0,1,1,16.087-4.178,24.437,24.437,0,0,1,40.524,20.26" transform="translate(8.357 4.178)" fill="#c1c1c1"/>
    </g>
    <g id="Group_2827" data-name="Group 2827" transform="translate(1477.798 2645.676)">
      <path id="Path_945" data-name="Path 945" d="M40.524,20.26A24.441,24.441,0,1,1,16.087-4.178,24.437,24.437,0,0,1,40.524,20.26" transform="translate(8.357 4.178)" fill="#c1c1c1"/>
    </g>
  </g>
</svg>
